<?xml version='1.0' encoding='UTF-8' standalone='no'?>
<!-- Created with Fritzing (http://www.fritzing.org/) -->
<svg xmlns:svg='http://www.w3.org/2000/svg' xmlns='http://www.w3.org/2000/svg' version='1.2' baseProfile='tiny' x='0in' y='0in' width='4.19in' height='3.12891in' viewBox='0 0 301.68 225.281' >
<g partID='57750'><g transform='translate(97.7593,22.0482)' ><g id="schematic">
<rect height="151.2" width="57.6" stroke="#000000" fill="none" stroke-linecap="round" stroke-width="0.72" id="rect7" x="7.57014" y="7.57879"/>
<text font-family="'Droid Sans'" font-size="4.32" fill="#000000" id="label" x="36.3642" y="26.0814" text-anchor="middle">Raspberry PI</text>
<text font-family="'Droid Sans'" font-size="3.528" fill="#555555" x="9.72" id="label0" y="145.664" text-anchor="start">GP14</text>
<text font-family="'Droid Sans'" font-size="2.52" fill="#555555" id="text15" x="3.10949" y="142.916" text-anchor="start">19</text>
<text font-family="'Droid Sans'" font-size="3.528" fill="#555555" x="9.40719" id="label1" y="152.839" text-anchor="start">GP15</text>
<text font-family="'Droid Sans'" font-size="2.52" fill="#555555" id="text22" x="2.76187" y="150.114" text-anchor="start">20</text>
<text font-family="'Droid Sans'" font-size="3.528" fill="#555555" id="text83" x="21.9123" y="12.5311" text-anchor="middle">SW CLK</text>
<g transform="scale(0.9998883,1.0001117)">
<text font-family="'Droid Sans'" font-size="2.51972" fill="#555555" stroke-width="0.072" x="19.2529" id="text51" y="5.70896" text-anchor="middle">41</text>
</g>
<text font-family="'Droid Sans'" font-size="3.528" fill="#555555" id="text87" x="36.2518" y="12.5655" text-anchor="middle">SW GND</text>
<g transform="scale(0.9998883,1.0001117)">
<text font-family="'Droid Sans'" font-size="2.51972" fill="#555555" stroke-width="0.072" id="text53" x="31.6522" y="5.73474" text-anchor="start">42</text>
</g>
<text font-family="'Droid Sans'" font-size="3.528" fill="#555555" id="text79" x="63.2161" y="152.839" text-anchor="end">GP16</text>
<text font-family="'Droid Sans'" font-size="2.52" fill="#555555" x="67.1622" id="text63" y="150.114" text-anchor="start">21</text>
<text font-family="'Droid Sans'" font-size="3.528" fill="#555555" id="text81" x="63.0921" y="145.639" text-anchor="end">GP17</text>
<text font-family="'Droid Sans'" font-size="2.52" fill="#555555" x="67.1844" id="text65" y="142.914" text-anchor="start">22</text>
<text font-family="'Droid Sans'" font-size="3.528" fill="#555555" id="text44" x="9.72" y="131.3" text-anchor="start">GP13</text>
<text font-family="'Droid Sans'" font-size="2.52" fill="#555555" x="3.10949" id="text46" y="128.552" text-anchor="start">17</text>
<text font-family="'Droid Sans'" font-size="3.528" fill="#555555" id="text48" x="36.2766" y="156.351" text-anchor="middle">GND</text>
<text font-family="'Droid Sans'" font-size="3.528" fill="#555555" id="text60" x="9.72" y="116.9" text-anchor="start">GP11</text>
<text font-family="'Droid Sans'" font-size="2.52" fill="#555555" x="3.10949" id="text62" y="114.152" text-anchor="start">15</text>
<text font-family="'Droid Sans'" font-size="3.528" fill="#555555" id="text64" x="9.40719" y="124.075" text-anchor="start">GP12</text>
<text font-family="'Droid Sans'" font-size="2.52" fill="#555555" x="2.76187" id="text66" y="121.35" text-anchor="start">16</text>
<text font-family="'Droid Sans'" font-size="3.528" fill="#555555" x="9.40719" id="text80" y="109.711" text-anchor="start">GP10</text>
<text font-family="'Droid Sans'" font-size="2.52" fill="#555555" id="text82" x="2.76187" y="106.986" text-anchor="start">14</text>
<text font-family="'Droid Sans'" font-size="3.528" fill="#555555" id="text94" x="9.40719" y="95.2748" text-anchor="start">GP9</text>
<text font-family="'Droid Sans'" font-size="2.52" fill="#555555" x="2.76187" id="text96" y="92.5502" text-anchor="start">12</text>
<text font-family="'Droid Sans'" font-size="3.528" fill="#555555" id="text148" x="9.72" y="80.8999" text-anchor="start">GP7</text>
<text font-family="'Droid Sans'" font-size="2.52" fill="#555555" x="3.10949" id="text150" y="78.1519" text-anchor="start">10</text>
<text font-family="'Droid Sans'" font-size="3.528" fill="#555555" id="text152" x="9.40719" y="88.0748" text-anchor="start">GP8</text>
<text font-family="'Droid Sans'" font-size="2.52" fill="#555555" x="2.76187" id="text154" y="85.3502" text-anchor="start">11</text>
<text font-family="'Droid Sans'" font-size="3.528" fill="#555555" x="9.40719" id="text168" y="73.7108" text-anchor="start">GP6</text>
<text font-family="'Droid Sans'" font-size="2.52" fill="#555555" id="text170" x="4.15837" y="71.0091" text-anchor="start">9</text>
<text font-family="'Droid Sans'" font-size="3.528" fill="#555555" x="9.72" id="text180" y="52.1359" text-anchor="start">GP4</text>
<text font-family="'Droid Sans'" font-size="2.52" fill="#555555" id="text182" x="4.50598" y="49.4108" text-anchor="start">6</text>
<text font-family="'Droid Sans'" font-size="3.528" fill="#555555" x="9.40719" id="text184" y="59.3108" text-anchor="start">GP5</text>
<text font-family="'Droid Sans'" font-size="2.52" fill="#555555" id="text186" x="4.15837" y="56.6091" text-anchor="start">7</text>
<text font-family="'Droid Sans'" font-size="3.528" fill="#555555" id="text196" x="9.72" y="37.7719" text-anchor="start">GP2</text>
<text font-family="'Droid Sans'" font-size="2.52" fill="#555555" x="4.50598" id="text198" y="35.0468" text-anchor="start">4</text>
<text font-family="'Droid Sans'" font-size="3.528" fill="#555555" id="text200" x="9.40719" y="44.9468" text-anchor="start">GP3</text>
<text font-family="'Droid Sans'" font-size="2.52" fill="#555555" x="4.15837" id="text202" y="42.2451" text-anchor="start">5</text>
<text font-family="'Droid Sans'" font-size="2.52" fill="#555555" id="text214" x="23.6591" y="162.395" text-anchor="start">3,8,13,18</text>
<text font-family="'Droid Sans'" font-size="3.528" fill="#555555" x="9.72" id="text220" y="23.3468" text-anchor="start">GP1</text>
<text font-family="'Droid Sans'" font-size="2.52" fill="#555555" id="text222" x="4.50598" y="20.6217" text-anchor="start">2</text>
<text font-family="'Droid Sans'" font-size="3.528" fill="#555555" id="text228" x="9.40719" y="16.0857" text-anchor="start">GP0</text>
<text font-family="'Droid Sans'" font-size="2.52" fill="#555555" x="4.15837" id="text230" y="13.384" text-anchor="start">1</text>
<text font-family="'Droid Sans'" font-size="3.528" fill="#555555" x="50.6166" id="text236" y="12.5655" text-anchor="middle">SW DIO</text>
<g transform="scale(0.9998883,1.0001117)">
<text font-family="'Droid Sans'" font-size="2.51972" fill="#555555" stroke-width="0.072" x="46.0153" id="text238" y="5.73474" text-anchor="start">43</text>
</g>
<text font-family="'Droid Sans'" font-size="3.528" fill="#555555" x="63.0921" id="text248" y="131.24" text-anchor="end">GP18</text>
<text font-family="'Droid Sans'" font-size="2.52" fill="#555555" id="text250" x="67.1844" y="128.516" text-anchor="start">24</text>
<text font-family="'Droid Sans'" font-size="3.528" fill="#555555" x="63.2161" id="text260" y="124.04" text-anchor="end">GP19</text>
<text font-family="'Droid Sans'" font-size="2.52" fill="#555555" id="text262" x="67.1622" y="121.316" text-anchor="start">25</text>
<text font-family="'Droid Sans'" font-size="3.528" fill="#555555" x="63.0921" id="text264" y="116.84" text-anchor="end">GP20</text>
<text font-family="'Droid Sans'" font-size="2.52" fill="#555555" id="text266" x="67.1844" y="114.116" text-anchor="start">26</text>
<text font-family="'Droid Sans'" font-size="3.528" fill="#555555" id="text276" x="63.2161" y="109.642" text-anchor="end">GP21</text>
<text font-family="'Droid Sans'" font-size="2.52" fill="#555555" x="67.1622" id="text278" y="106.917" text-anchor="start">27</text>
<text font-family="'Droid Sans'" font-size="3.528" fill="#555555" x="63.2161" id="text292" y="95.2403" text-anchor="end">GP22</text>
<text font-family="'Droid Sans'" font-size="2.52" fill="#555555" id="text294" x="67.1622" y="92.5157" text-anchor="start">29</text>
<text font-family="'Droid Sans'" font-size="3.528" fill="#555555" x="63.0921" id="text296" y="88.0403" text-anchor="end">RUN</text>
<text font-family="'Droid Sans'" font-size="2.52" fill="#555555" id="text298" x="67.1844" y="85.3157" text-anchor="start">30</text>
<text font-family="'Droid Sans'" font-size="3.528" fill="#555555" id="text308" x="63.2161" y="80.8419" text-anchor="end">GP26_A0</text>
<text font-family="'Droid Sans'" font-size="2.52" fill="#555555" x="67.1622" id="text310" y="78.1173" text-anchor="start">31</text>
<text font-family="'Droid Sans'" font-size="3.528" fill="#555555" id="text312" x="63.0921" y="73.6419" text-anchor="end">GP27_A1</text>
<text font-family="'Droid Sans'" font-size="2.52" fill="#555555" x="67.1844" id="text314" y="70.9173" text-anchor="start">32</text>
<text font-family="'Droid Sans'" font-size="3.528" fill="#555555" id="text324" x="63.2161" y="66.4419" text-anchor="end">AGND</text>
<text font-family="'Droid Sans'" font-size="2.52" fill="#555555" x="67.1622" id="text326" y="63.7173" text-anchor="start">33</text>
<text font-family="'Droid Sans'" font-size="3.528" fill="#555555" id="text328" x="63.0921" y="59.2419" text-anchor="end">GP28_A2</text>
<text font-family="'Droid Sans'" font-size="2.52" fill="#555555" x="67.1844" id="text330" y="56.5173" text-anchor="start">34</text>
<text font-family="'Droid Sans'" font-size="3.528" fill="#555555" x="63.2161" id="text340" y="52.0434" text-anchor="end">ADC_VREF</text>
<text font-family="'Droid Sans'" font-size="2.52" fill="#555555" id="text342" x="67.1622" y="49.3188" text-anchor="start">35</text>
<text font-family="'Droid Sans'" font-size="3.528" fill="#555555" x="63.0921" id="text344" y="44.8434" text-anchor="end">3V3</text>
<text font-family="'Droid Sans'" font-size="2.52" fill="#555555" id="text346" x="67.1844" y="42.1188" text-anchor="start">36</text>
<text font-family="'Droid Sans'" font-size="3.528" fill="#555555" x="63.2161" id="text356" y="37.6403" text-anchor="end">3V3_EN</text>
<text font-family="'Droid Sans'" font-size="2.52" fill="#555555" id="text358" x="67.1622" y="34.9157" text-anchor="start">37</text>
<text font-family="'Droid Sans'" font-size="3.528" fill="#555555" id="text372" x="63.2161" y="23.2419" text-anchor="end">VSS</text>
<text font-family="'Droid Sans'" font-size="2.52" fill="#555555" x="67.1622" id="text374" y="20.5173" text-anchor="start">39</text>
<text font-family="'Droid Sans'" font-size="3.528" fill="#555555" id="text376" x="63.0921" y="16.0419" text-anchor="end">VBUS</text>
<text font-family="'Droid Sans'" font-size="2.52" fill="#555555" x="67.1844" id="text378" y="13.3173" text-anchor="start">40</text>
<text font-family="'Droid Sans'" font-size="4.32" fill="#000000" x="36.3642" id="text388" y="33.2938" text-anchor="middle">Pico</text>
<line y1="14.8357" stroke="#555555" fill="none" stroke-linecap="round" stroke-width="0.72" id="connector0pin" y2="14.8357" x2="7.2188" x1="0.365127"/>
<g width="0.72" height="0.72" fill="none" stroke-width="0" id="connector0terminal" x="0.0101433" y="14.4657"/>
<line y1="22.0717" stroke="#555555" fill="none" stroke-linecap="round" stroke-width="0.72" id="connector1pin" x1="0.365127" x2="7.2188" y2="22.0717"/>
<g height="0.72" width="0.72" fill="none" stroke-width="0" x="0.0101433" id="connector1terminal" y="21.7217"/>
<line y1="165.955" stroke="#555555" fill="none" stroke-linecap="round" stroke-width="0.72" id="connector2pin" x1="36.36" x2="36.36" y2="159.101"/>
<g transform="rotate(-90)">
<g height="0.72" width="0.72" fill="none" stroke-width="0" x="-166.32" id="connector2terminal" y="36"/>
</g>
<line y1="36.4968" stroke="#555555" fill="none" stroke-linecap="round" stroke-width="0.72" id="connector3pin" y2="36.4968" x2="7.2188" x1="0.365127"/>
<g width="0.72" height="0.72" fill="none" stroke-width="0" id="connector3terminal" x="0.0101433" y="36.1468"/>
<line y1="43.6968" stroke="#555555" fill="none" stroke-linecap="round" stroke-width="0.72" id="connector4pin" y2="43.6968" x2="7.2188" x1="0.365127"/>
<g width="0.72" height="0.72" fill="none" stroke-width="0" id="connector4terminal" x="0.0101433" y="43.3268"/>
<line y1="50.8608" stroke="#555555" fill="none" stroke-linecap="round" stroke-width="0.72" id="connector5pin" x1="0.365127" x2="7.2188" y2="50.8608"/>
<g height="0.72" width="0.72" fill="none" stroke-width="0" x="0.0101433" id="connector5terminal" y="50.5108"/>
<line y1="58.0608" stroke="#555555" fill="none" stroke-linecap="round" stroke-width="0.72" id="connector6pin" x1="0.365127" x2="7.2188" y2="58.0608"/>
<g height="0.72" width="0.72" fill="none" stroke-width="0" x="0.0101433" id="connector6terminal" y="57.6908"/>
<line y1="165.955" stroke="#555555" fill="none" stroke-linecap="round" stroke-width="0.72" id="connector7pin" x1="36.36" x2="36.36" y2="159.101"/>
<g height="0.72" width="0.72" fill="none" stroke-width="0" x="36" id="connector7terminal" y="165.6"/>
<line y1="72.4608" stroke="#555555" fill="none" stroke-linecap="round" stroke-width="0.72" id="connector8pin" x1="0.365127" x2="7.2188" y2="72.4608"/>
<g height="0.72" width="0.72" fill="none" stroke-width="0" x="0.0101433" id="connector8terminal" y="72.0908"/>
<line y1="79.6248" stroke="#555555" fill="none" stroke-linecap="round" stroke-width="0.72" id="connector9pin" y2="79.6248" x2="7.2188" x1="0.365127"/>
<g width="0.72" height="0.72" fill="none" stroke-width="0" id="connector9terminal" x="0.0101433" y="79.2748"/>
<line y1="86.8248" stroke="#555555" fill="none" stroke-linecap="round" stroke-width="0.72" id="connector10pin" y2="86.8248" x2="7.2188" x1="0.365127"/>
<g width="0.72" height="0.72" fill="none" stroke-width="0" id="connector10terminal" x="0.0101433" y="86.4548"/>
<line y1="94.0248" stroke="#555555" fill="none" stroke-linecap="round" stroke-width="0.72" id="connector11pin" y2="94.0248" x2="7.2188" x1="0.365127"/>
<g width="0.72" height="0.72" fill="none" stroke-width="0" id="connector11terminal" x="0.0101433" y="93.6548"/>
<line y1="165.955" stroke="#555555" fill="none" stroke-linecap="round" stroke-width="0.72" id="connector12pin" x1="36.36" x2="36.36" y2="159.101"/>
<g height="0.72" width="0.72" fill="none" stroke-width="0" x="36" id="connector12terminal" y="165.6"/>
<line y1="108.461" stroke="#555555" fill="none" stroke-linecap="round" stroke-width="0.72" id="connector13pin" x1="0.365127" x2="7.2188" y2="108.461"/>
<g height="0.72" width="0.72" fill="none" stroke-width="0" x="0.0101433" id="connector13terminal" y="108.091"/>
<line y1="115.625" stroke="#555555" fill="none" stroke-linecap="round" stroke-width="0.72" id="connector14pin" y2="115.625" x2="7.2188" x1="0.365127"/>
<g width="0.72" height="0.72" fill="none" stroke-width="0" id="connector14terminal" x="0.0101433" y="115.275"/>
<line y1="122.825" stroke="#555555" fill="none" stroke-linecap="round" stroke-width="0.72" id="connector15pin" y2="122.825" x2="7.2188" x1="0.365127"/>
<g width="0.72" height="0.72" fill="none" stroke-width="0" id="connector15terminal" x="0.0101433" y="122.455"/>
<line y1="130.025" stroke="#555555" fill="none" stroke-linecap="round" stroke-width="0.72" id="connector16pin" y2="130.025" x2="7.2188" x1="0.365127"/>
<g width="0.72" height="0.72" fill="none" stroke-width="0" id="connector16terminal" x="0.0101433" y="129.675"/>
<line y1="165.955" stroke="#555555" fill="none" stroke-linecap="round" stroke-width="0.72" id="connector17pin" y2="159.101" x2="36.36" x1="36.36"/>
<g width="0.72" height="0.72" fill="none" stroke-width="0" id="connector17terminal" x="36" y="165.6"/>
<line y1="144.389" stroke="#555555" fill="none" stroke-linecap="round" stroke-width="0.72" id="connector18pin" x1="0.365127" x2="7.2188" y2="144.389"/>
<g height="0.72" width="0.72" fill="none" stroke-width="0" x="0.0101433" id="connector18terminal" y="144.039"/>
<line y1="151.589" stroke="#555555" fill="none" stroke-linecap="round" stroke-width="0.72" id="connector19pin" x1="0.365127" x2="7.2188" y2="151.589"/>
<g height="0.72" width="0.72" fill="none" stroke-width="0" x="0.0101433" id="connector19terminal" y="151.219"/>
<line y1="151.555" stroke="#555555" fill="none" stroke-linecap="round" stroke-width="0.72" id="connector20pin" y2="151.555" x2="72.3334" x1="65.4934"/>
<g width="0.72" height="0.72" fill="none" stroke-width="0" id="connector20terminal" x="71.9734" y="151.195"/>
<line y1="144.355" stroke="#555555" fill="none" stroke-linecap="round" stroke-width="0.72" id="connector21pin" y2="144.355" x2="72.3334" x1="65.4934"/>
<g width="0.72" height="0.72" fill="none" stroke-width="0" id="connector21terminal" x="71.9734" y="144.067"/>
<line y1="159.115" stroke="#555555" fill="none" stroke-linecap="round" stroke-width="0.72" id="connector22pin" x1="36.36" x2="36.36" y2="165.955"/>
<g height="0.72" width="0.72" fill="none" stroke-width="0" x="36" id="connector22terminal" y="165.6"/>
<line y1="129.956" stroke="#555555" fill="none" stroke-linecap="round" stroke-width="0.72" id="connector23pin" x1="65.4934" x2="72.3334" y2="129.956"/>
<g height="0.72" width="0.72" fill="none" stroke-width="0" x="71.9734" id="connector23terminal" y="129.668"/>
<line y1="122.756" stroke="#555555" fill="none" stroke-linecap="round" stroke-width="0.72" id="connector24pin" x1="65.4934" x2="72.3334" y2="122.756"/>
<g height="0.72" width="0.72" fill="none" stroke-width="0" x="71.9734" id="connector24terminal" y="122.396"/>
<line y1="115.556" stroke="#555555" fill="none" stroke-linecap="round" stroke-width="0.72" id="connector25pin" x1="65.4934" x2="72.3334" y2="115.556"/>
<g height="0.72" width="0.72" fill="none" stroke-width="0" x="71.9734" id="connector25terminal" y="115.268"/>
<line y1="108.358" stroke="#555555" fill="none" stroke-linecap="round" stroke-width="0.72" id="connector26pin" y2="108.358" x2="72.3334" x1="65.4934"/>
<g width="0.72" height="0.72" fill="none" stroke-width="0" id="connector26terminal" x="71.9734" y="107.998"/>
<line y1="159.115" stroke="#555555" fill="none" stroke-linecap="round" stroke-width="0.72" id="connector27pin" y2="165.955" x2="36.36" x1="36.36"/>
<g width="0.72" height="0.72" fill="none" stroke-width="0" id="connector27terminal" x="36" y="165.6"/>
<line y1="93.9564" stroke="#555555" fill="none" stroke-linecap="round" stroke-width="0.72" id="connector28pin" x1="65.4934" x2="72.3334" y2="93.9564"/>
<g height="0.72" width="0.72" fill="none" stroke-width="0" x="71.9734" id="connector28terminal" y="93.5964"/>
<line y1="86.7564" stroke="#555555" fill="none" stroke-linecap="round" stroke-width="0.72" id="connector29pin" x1="65.4934" x2="72.3334" y2="86.7564"/>
<g height="0.72" width="0.72" fill="none" stroke-width="0" x="71.9734" id="connector29terminal" y="86.4684"/>
<line y1="79.558" stroke="#555555" fill="none" stroke-linecap="round" stroke-width="0.72" id="connector30pin" y2="79.558" x2="72.3334" x1="65.4934"/>
<g width="0.72" height="0.72" fill="none" stroke-width="0" id="connector30terminal" x="71.9734" y="79.198"/>
<line y1="72.358" stroke="#555555" fill="none" stroke-linecap="round" stroke-width="0.72" id="connector31pin" y2="72.358" x2="72.3334" x1="65.4934"/>
<g width="0.72" height="0.72" fill="none" stroke-width="0" id="connector31terminal" x="71.9734" y="72.07"/>
<line y1="65.158" stroke="#555555" fill="none" stroke-linecap="round" stroke-width="0.72" id="connector32pin" y2="65.158" x2="72.3334" x1="65.4934"/>
<g width="0.72" height="0.72" fill="none" stroke-width="0" id="connector32terminal" x="71.9734" y="64.798"/>
<line y1="57.958" stroke="#555555" fill="none" stroke-linecap="round" stroke-width="0.72" id="connector33pin" y2="57.958" x2="72.3334" x1="65.4934"/>
<g width="0.72" height="0.72" fill="none" stroke-width="0" id="connector33terminal" x="71.9734" y="57.67"/>
<line y1="50.7595" stroke="#555555" fill="none" stroke-linecap="round" stroke-width="0.72" id="connector34pin" x1="65.4934" x2="72.3334" y2="50.7595"/>
<g height="0.72" width="0.72" fill="none" stroke-width="0" x="71.9734" id="connector34terminal" y="50.3995"/>
<line y1="43.5595" stroke="#555555" fill="none" stroke-linecap="round" stroke-width="0.72" id="connector35pin" x1="65.4934" x2="72.3334" y2="43.5595"/>
<g height="0.72" width="0.72" fill="none" stroke-width="0" x="71.9734" id="connector35terminal" y="43.2715"/>
<line y1="36.3564" stroke="#555555" fill="none" stroke-linecap="round" stroke-width="0.72" id="connector36pin" x1="65.4934" x2="72.3334" y2="36.3564"/>
<g height="0.72" width="0.72" fill="none" stroke-width="0" x="71.9734" id="connector36terminal" y="35.9964"/>
<line y1="165.955" stroke="#555555" fill="none" stroke-linecap="round" stroke-width="0.72" id="connector37pin" x1="36.36" x2="36.36" y2="159.115"/>
<g height="0.72" width="0.72" fill="none" stroke-width="0" x="36" id="connector37terminal" y="165.6"/>
<line y1="21.9579" stroke="#555555" fill="none" stroke-linecap="round" stroke-width="0.72" id="connector38pin" y2="21.9579" x2="72.3334" x1="65.4934"/>
<g width="0.72" height="0.72" fill="none" stroke-width="0" id="connector38terminal" x="71.9734" y="21.5979"/>
<line y1="14.758" stroke="#555555" fill="none" stroke-linecap="round" stroke-width="0.72" id="connector39pin" y2="14.758" x2="72.3334" x1="65.4934"/>
<g width="0.72" height="0.72" fill="none" stroke-width="0" id="connector39terminal" x="71.9734" y="14.47"/>
<line y1="0.714868" stroke="#555555" fill="none" stroke-linecap="round" stroke-width="0.72" id="connector40pin" y2="7.55487" x2="21.9481" x1="21.9481"/>
<g width="0.72" height="0.72" fill="none" stroke-width="0" id="connector40terminal" x="21.5881" y="1.02318e-15"/>
<line y1="0.714868" stroke="#555555" fill="none" stroke-linecap="round" stroke-width="0.72" id="connector41pin" x1="36.3488" x2="36.3488" y2="7.55487"/>
<g height="0.72" width="0.72" fill="none" stroke-width="0" x="35.9888" id="connector41terminal" y="1.02318e-15"/>
<line y1="0.714868" stroke="#555555" fill="none" stroke-linecap="round" stroke-width="0.72" id="connector42pin" y2="7.55487" x2="50.7135" x1="50.7135"/>
<g width="0.72" height="0.72" fill="none" stroke-width="0" id="connector42terminal" x="50.3535" y="1.02318e-15"/>
<text font-family="'Droid Sans'" font-size="2.52" fill="#555555" x="38.0591" id="text361" y="162.38" text-anchor="start">23,28,38</text>
</g>
</g></g><g partID='18583510'><g transform='translate(206.22,36.5491)' ><g id="schematic">
<metadata id="CorelCorpID_0Corel-Layer"/>
<rect width="42.2997" height="35.1003" stroke="black" fill="white" stroke-linecap="round" stroke-width="0.719998" x="0.359917" y="8.00038"/>
<line stroke="#787878" y1="43.1998" fill="none" stroke-linecap="round" stroke-width="0.69987" gorn="0.0.7" id="connector0pin" x1="21.5098" x2="21.5098" y2="50.4001"/>
<g transform="matrix(-8.01198e-14, -1, 1, -8.01198e-14, -1.19111, 63.4387)">
<g>
<text font-family="Droid Sans" font-weight="normal" fill="#606062" font-size="3.49991" x="22.0597" y="24.0732">GND</text>
</g>
</g>
<g width="0.699769" height="0.699774" fill="none" gorn="0.0.9" id="connector0terminal" x="21.1599" y="50.4001" text-anchor="start"/>
<line stroke="#787878" y1="0.700402" fill="none" stroke-linecap="round" stroke-width="0.69987" gorn="0.0.10" id="connector1pin" x1="21.5098" x2="21.5098" y2="7.90005"/>
<g transform="matrix(-8.01198e-14, -1, 1, -8.01198e-14, -1.19082, 31.6724)">
<g>
<text font-family="Droid Sans" font-weight="normal" fill="#606062" font-size="3.49991" x="15.9912" y="24.0732">VCC</text>
</g>
</g>
<g width="0.699769" height="0.699774" fill="none" gorn="0.0.12" id="connector1terminal" x="21.1599" text-anchor="end"/>
<line stroke="#787878" y1="21.9501" fill="none" stroke-linecap="round" stroke-width="0.69987" gorn="0.0.1" id="connector2pin" x1="42.7593" x2="49.9595" y2="21.9501"/>
<g transform="matrix(1, 0, 0, 1, 18.5107, -0.62504)">
<g>
<text font-family="Droid Sans" font-weight="normal" fill="#606062" font-size="3.49991" x="15.7555" y="24.0732">SDA</text>
</g>
</g>
<g width="0.699769" height="0.699774" fill="none" gorn="0.0.3" id="connector2terminal" x="49.9595" y="21.6002" text-anchor="end"/>
<line stroke="#787878" y1="29.1504" fill="none" stroke-linecap="round" stroke-width="0.69987" gorn="0.0.4" id="connector3pin" x1="42.7593" x2="49.9595" y2="29.1504"/>
<g transform="matrix(1, 0, 0, 1, 18.7238, 6.62516)">
<g>
<text font-family="Droid Sans" font-weight="normal" fill="#606062" font-size="3.49991" x="16.4139" y="24.0732">SCL</text>
</g>
</g>
<g width="0.699769" height="0.699774" fill="none" gorn="0.0.6" id="connector3terminal" x="49.9595" y="28.8005" text-anchor="end"/>
<g transform="matrix(1, 0, 0, 1, -0.63099, -0.479906)">
<g>
<text font-family="OCRA" font-weight="500" fill="black" font-size="4.24996" x="11.4239" id="label" y="24.0732">LCD2004</text>
</g>
</g>
<g transform="matrix(1, 0, 0, 1, -0.572879, 5.76823)">
<g>
<text font-family="OCRA" font-weight="500" fill="black" font-size="4.24996" x="17.5011" id="label_0" y="24.0732">I2C</text>
</g>
</g>
</g>
</g></g><g partID='18592220'><g transform='translate(47.5135,206.999)' ><g transform='matrix(0,1,1,0,0,0)'  ><g id="schematic">
<g>
<path d="M13.5,14.966L9.9,14.966c-0.193,0,-0.35,-0.156,-0.35,-0.35s0.156,-0.35,0.35,-0.35L13.5,14.266c0.193,0,0.35,0.156,0.35,0.35S13.694,14.966,13.5,14.966z"/>
</g>
<g>
<path d="M9.9,14.966L6.3,14.966c-0.193,0,-0.35,-0.156,-0.35,-0.35s0.157,-0.35,0.35,-0.35l3.6,0c0.193,0,0.35,0.156,0.35,0.35S10.093,14.966,9.9,14.966z"/>
</g>
<g>
<polygon points="9.9,14.616,6.3,7.416,9.9,7.416,13.5,7.416" fill="#FFFFFF"/>
<path d="M9.9,15.398L5.734,7.066l8.333,0L9.9,15.398zM6.866,7.766L9.9,13.834l3.034,-6.068L6.866,7.766z"/>
</g>
<g>
<path d="M9.9,14.841c-0.124,0,-0.225,-0.101,-0.225,-0.225l0,-7.2c0,-0.124,0.101,-0.225,0.225,-0.225s0.225,0.101,0.225,0.225l0,7.2C10.124,14.74,10.024,14.841,9.9,14.841z"/>
</g>
<g>
<path d="M1.8,12.141c-0.058,0,-0.115,-0.021,-0.159,-0.065c-0.088,-0.088,-0.088,-0.23,0,-0.318l2.34,-2.341c0.088,-0.088,0.23,-0.088,0.318,0s0.088,0.23,0,0.318l-2.34,2.341C1.915,12.12,1.858,12.141,1.8,12.141z"/>
</g>
<g>
<path d="M2.16,15.381c-0.058,0,-0.115,-0.021,-0.159,-0.065c-0.088,-0.088,-0.088,-0.23,0,-0.318l2.34,-2.34c0.088,-0.088,0.23,-0.088,0.318,0s0.088,0.23,0,0.318l-2.34,2.34C2.276,15.359,2.218,15.381,2.16,15.381z"/>
</g>
<g id="connector0pin">
<path fill="#787878" d="M9.9,22.166c-0.193,0,-0.35,-0.156,-0.35,-0.35l0,-7.2c0,-0.193,0.156,-0.35,0.35,-0.35s0.35,0.156,0.35,0.35l0,7.2C10.249,22.01,10.093,22.166,9.9,22.166z"/>
</g>
<g id="connector0terminal">
<rect width="0.001" height="0.001" fill="none" x="9.9" y="21.816"/>
</g>
<g transform="matrix(1, 0, 0, 1, 3.429, 6.4262)">
<g>
<g transform="rotate(270)">
<g>
<g enable-background="new    ">
<path fill="#787878" d="M-11.647,5.54l-0.891,0L-12.538,5.388l0.342,-0.372c0.049,-0.053,0.093,-0.101,0.131,-0.145s0.071,-0.086,0.099,-0.128c0.026,-0.042,0.047,-0.084,0.062,-0.125c0.015,-0.043,0.021,-0.088,0.021,-0.138c0,-0.038,-0.005,-0.072,-0.017,-0.102s-0.027,-0.054,-0.047,-0.075c-0.021,-0.02,-0.045,-0.035,-0.073,-0.046s-0.06,-0.016,-0.094,-0.016c-0.062,0,-0.118,0.013,-0.167,0.038c-0.051,0.024,-0.098,0.057,-0.143,0.096l-0.1,-0.116c0.025,-0.023,0.055,-0.046,0.084,-0.065c0.029,-0.021,0.063,-0.039,0.097,-0.054s0.071,-0.026,0.109,-0.036c0.038,-0.008,0.079,-0.013,0.121,-0.013c0.063,0,0.119,0.009,0.169,0.026c0.051,0.018,0.094,0.043,0.129,0.076c0.035,0.032,0.063,0.072,0.082,0.119c0.019,0.048,0.028,0.101,0.028,0.16c0,0.056,-0.009,0.108,-0.026,0.158c-0.017,0.05,-0.041,0.1,-0.07,0.148c-0.031,0.048,-0.066,0.097,-0.109,0.146c-0.041,0.049,-0.087,0.1,-0.136,0.152L-12.32,5.37l0,0.008l0.673,0L-11.647,5.54z"/>
</g>
</g>
</g>
</g>
</g>
<g id="connector1pin">
<path fill="#787878" d="M9.9,7.766c-0.193,0,-0.35,-0.157,-0.35,-0.35l0,-7.2c0,-0.193,0.156,-0.35,0.35,-0.35s0.35,0.157,0.35,0.35l0,7.2C10.249,7.609,10.093,7.766,9.9,7.766z"/>
</g>
<g id="connector1terminal">
<polygon points="9.9,0.216,9.901,0.216,9.901,0.216" fill="none"/>
</g>
<g transform="matrix(1, 0, 0, 1, 3.429, 1.3462)">
<g>
<g transform="rotate(270)">
<g>
<g enable-background="new    ">
<path fill="#787878" d="M-2.616,5.54l-0.172,0L-2.788,4.648c0,-0.028,0,-0.058,0,-0.09s0.001,-0.063,0.002,-0.095c0.001,-0.032,0.002,-0.063,0.003,-0.092c0.001,-0.028,0.002,-0.054,0.002,-0.076c-0.011,0.012,-0.021,0.021,-0.029,0.03s-0.017,0.017,-0.026,0.024s-0.018,0.016,-0.028,0.025c-0.01,0.008,-0.021,0.019,-0.035,0.03l-0.145,0.118l-0.094,-0.12l0.374,-0.292l0.146,0L-2.618,5.54z"/>
</g>
</g>
</g>
</g>
</g>
<g>
<path d="M0.18,13.536l1.08,-2.521l1.44,1.438L0.18,13.536z"/>
</g>
<g>
<path d="M0.54,16.776l1.08,-2.521l1.438,1.438L0.54,16.776z"/>
</g>
</g>
</g></g></g><g partID='18592960'><g transform='translate(22.0259,187.749)' ><g transform='matrix(0,1,-1,0,0,0)'  ><g id="schematic" xmlns="http://www.w3.org/2000/svg">
<line class="other" y1="3.096" stroke="#000000" stroke-linecap="round" stroke-width="0.432002" x1="7.55002" x2="8.63003" y2="0.216" xmlns="http://www.w3.org/2000/svg"/>
<line class="other" y1="0.216" stroke="#000000" stroke-linecap="round" stroke-width="0.432002" x1="8.63003" x2="10.43" y2="5.976" xmlns="http://www.w3.org/2000/svg"/>
<line class="other" y1="5.976" stroke="#000000" stroke-linecap="round" stroke-width="0.432002" x1="10.43" x2="12.23" y2="0.216" xmlns="http://www.w3.org/2000/svg"/>
<line class="other" y1="0.216" stroke="#000000" stroke-linecap="round" stroke-width="0.432002" x1="12.23" x2="14.03" y2="5.976" xmlns="http://www.w3.org/2000/svg"/>
<line class="other" y1="5.976" stroke="#000000" stroke-linecap="round" stroke-width="0.432002" x1="14.03" x2="15.8301" y2="0.216" xmlns="http://www.w3.org/2000/svg"/>
<line class="other" y1="0.216" stroke="#000000" stroke-linecap="round" stroke-width="0.432002" x1="15.8301" x2="17.6301" y2="5.976" xmlns="http://www.w3.org/2000/svg"/>
<line class="other" y1="5.976" stroke="#000000" stroke-linecap="round" stroke-width="0.432002" x1="17.6301" x2="19.4301" y2="0.216" xmlns="http://www.w3.org/2000/svg"/>
<line class="other" y1="0.216" stroke="#000000" stroke-linecap="round" stroke-width="0.432002" x1="19.4301" x2="21.2301" y2="5.976" xmlns="http://www.w3.org/2000/svg"/>
<line class="other" y1="5.976" stroke="#000000" stroke-linecap="round" stroke-width="0.432002" x1="21.2301" x2="21.9501" y2="3.096" xmlns="http://www.w3.org/2000/svg"/>
<line class="pin" y1="3.096" stroke="#787878" stroke-linecap="round" stroke-width="0.700001" connectorname="2" id="connector1pin" x1="29.1502" x2="21.9501" y2="3.096" xmlns="http://www.w3.org/2000/svg"/>
<g width="0.000283466" height="0.000283465" class="terminal" stroke="none" fill="none" stroke-width="0" id="connector1terminal" x="29.1502" y="3.096" xmlns="http://www.w3.org/2000/svg"/>
<text class="text" stroke="none" font-family="'Droid Sans'" fill="#8c8c8c" font-size="2.50001" stroke-width="0" x="25.5501" y="2.046" text-anchor="middle" xmlns="http://www.w3.org/2000/svg">2</text>
<line class="pin" y1="3.096" stroke="#787878" stroke-linecap="round" stroke-width="0.700001" connectorname="1" id="connector0pin" x1="0.350001" x2="7.55002" y2="3.096" xmlns="http://www.w3.org/2000/svg"/>
<g width="0.000283466" height="0.000283465" class="terminal" stroke="none" fill="none" stroke-width="0" id="connector0terminal" x="0.350001" y="3.096" xmlns="http://www.w3.org/2000/svg"/>
<text class="text" stroke="none" font-family="'Droid Sans'" fill="#8c8c8c" font-size="2.50001" stroke-width="0" x="3.95001" y="2.046" text-anchor="middle" xmlns="http://www.w3.org/2000/svg">1</text>
</g>
</g></g></g><g partID='854161040'><line stroke-linecap='round' stroke='#00a527' x1='170.093' y1='58.4046' x2='170.093' y2='44.0062' stroke-width='0.4' /></g><g partID='854161060'><line stroke-linecap='round' stroke='#00a527' x1='33.3295' y1='130.499' x2='33.3295' y2='116.099' stroke-width='0.4' /></g><g partID='18585130'><line stroke-linecap='round' stroke='#404040' x1='227.729' y1='36.899' x2='170.093' y2='36.8782' stroke-width='0.699998' /></g><g partID='18586770'><line stroke-linecap='round' stroke='#404040' x1='227.642' y1='188.193' x2='227.729' y2='87.299' stroke-width='0.699998' /></g><g partID='18585200'><line stroke-linecap='round' stroke='#404040' x1='134.119' y1='188.008' x2='227.642' y2='188.193' stroke-width='0.699998' /></g><circle  fill="black" cx="134.119" cy="188.008" r="1.44" stroke-width="0" stroke="none" /><g partID='18586520'><line stroke-linecap='round' stroke='#404040' x1='69.4713' y1='72.9541' x2='98.1295' y2='72.919' stroke-width='0.699998' /></g><g partID='18586470'><line stroke-linecap='round' stroke='#404040' x1='69.4713' y1='15.1731' x2='69.4713' y2='72.9541' stroke-width='0.699998' /></g><g partID='18586420'><line stroke-linecap='round' stroke='#404040' x1='256.372' y1='15.1731' x2='69.4711' y2='15.1731' stroke-width='0.699998' /></g><g partID='18585430'><line stroke-linecap='round' stroke='#404040' x1='256.529' y1='58.4993' x2='256.372' y2='15.1731' stroke-width='0.699998' /></g><g partID='18586720'><line stroke-linecap='round' stroke='#404040' x1='62.0469' y1='80.0556' x2='98.1295' y2='80.099' stroke-width='0.699998' /></g><g partID='18586670'><line stroke-linecap='round' stroke='#404040' x1='62.0469' y1='8.0715' x2='62.0469' y2='80.0556' stroke-width='0.699998' /></g><g partID='18586620'><line stroke-linecap='round' stroke='#404040' x1='263.796' y1='8.0715' x2='62.0471' y2='8.0715' stroke-width='0.699998' /></g><g partID='18586570'><line stroke-linecap='round' stroke='#404040' x1='263.796' y1='65.8525' x2='263.796' y2='8.0715' stroke-width='0.699998' /></g><g partID='18585500'><line stroke-linecap='round' stroke='#404040' x1='256.529' y1='65.6995' x2='263.796' y2='65.8525' stroke-width='0.699998' /></g><g partID='18594010'><line stroke-linecap='round' stroke='#404040' x1='19.0153' y1='173.873' x2='98.1295' y2='173.627' stroke-width='0.699998' /></g><g partID='18594020'><line stroke-linecap='round' stroke='#404040' x1='18.9295' y1='188.099' x2='19.0153' y2='173.873' stroke-width='0.699998' /></g><g partID='18594130'><line stroke-linecap='round' stroke='#404040' x1='40.5983' y1='217.038' x2='18.9295' y2='216.899' stroke-width='0.699998' /></g><g partID='18594140'><line stroke-linecap='round' stroke='#404040' x1='47.7295' y1='216.899' x2='40.5981' y2='217.038' stroke-width='0.699998' /></g><g partID='18594250'><line stroke-linecap='round' stroke='#404040' x1='134.268' y1='217.038' x2='69.3299' y2='216.899' stroke-width='0.699998' /></g><g partID='18594260'><line stroke-linecap='round' stroke='#404040' x1='134.119' y1='188.008' x2='134.268' y2='217.038' stroke-width='0.699998' /></g><circle  fill="black" cx="134.119" cy="188.008" r="1.44" stroke-width="0" stroke="none" /><g partID='854159790'><line stroke-linecap='round' stroke='#404040' x1='184.581' y1='1.05' x2='47.7025' y2='1.05' stroke-width='0.699998' /></g><g partID='854159720'><line stroke-linecap='round' stroke='#404040' x1='47.7025' y1='1.05' x2='47.7025' y2='116' stroke-width='0.699998' /></g><g partID='854159580'><line stroke-linecap='round' stroke='#404040' x1='184.581' y1='58.348' x2='184.581' y2='1.05' stroke-width='0.699998' /></g><g partID='854159650'><line stroke-linecap='round' stroke='#404040' x1='47.7025' y1='116' x2='33.3295' y2='116.099' stroke-width='0.699998' /></g><g partID='854159510'><line stroke-linecap='round' stroke='#404040' x1='170.093' y1='58.4046' x2='184.581' y2='58.348' stroke-width='0.699998' /></g><g partID='854160190'><line stroke-linecap='round' stroke='#404040' x1='40.6287' y1='123.427' x2='33.3295' y2='123.299' stroke-width='0.699998' /></g><g partID='854160080'><line stroke-linecap='round' stroke='#404040' x1='134.003' y1='224.229' x2='40.6287' y2='224.229' stroke-width='0.699998' /></g><g partID='854159970'><line stroke-linecap='round' stroke='#404040' x1='40.6287' y1='224.229' x2='40.6287' y2='123.427' stroke-width='0.699998' /></g><g partID='854159860'><line stroke-linecap='round' stroke='#404040' x1='134.119' y1='188.008' x2='134.003' y2='224.229' stroke-width='0.699998' /></g><g partID='854160370'><line stroke-linecap='round' stroke='#404040' x1='47.7025' y1='130.501' x2='33.3295' y2='130.499' stroke-width='0.699998' /></g><g partID='854160300'><line stroke-linecap='round' stroke='#404040' x1='98.1295' y1='166.447' x2='47.7025' y2='166.578' stroke-width='0.699998' /></g><g partID='854160440'><line stroke-linecap='round' stroke='#404040' x1='47.7025' y1='166.578' x2='47.7025' y2='130.501' stroke-width='0.699998' /></g><g partID='18583510' id='partLabel'><g transform='translate(256.88,30.9491)' ><g font-size='5' font-style='normal' font-weight='normal' fill='#000000' font-family="'DroidSans'" id='schematicLabel' fill-opacity='1' stroke='none' ><text x='0' y='3.75'>LCD2004-I2C1</text></g></g></g><g partID='854159420' id='partLabel'><g transform='translate(41.2665,150.065)' ><g transform='matrix(-1,0,0,-1,0,0)'  ><g font-size='5' font-style='normal' font-weight='normal' fill='#000000' font-family="'DroidSans'" id='schematicLabel' fill-opacity='1' stroke='none' ><text x='0' y='3.75'>IR2</text></g></g></g></g><g partID='57750' id='partLabel'><g transform='translate(170.458,16.4482)' ><g font-size='5' font-style='normal' font-weight='normal' fill='#000000' font-family="'DroidSans'" id='schematicLabel' fill-opacity='1' stroke='none' ><text x='0' y='3.75'>Mod1</text></g></g></g><g partID='18592220' id='partLabel'><g transform='translate(65.369,191.623)' ><g font-size='5' font-style='normal' font-weight='normal' fill='#000000' font-family="'DroidSans'" id='schematicLabel' fill-opacity='1' stroke='none' ><text x='0' y='3.75'>LED1</text><text x='0' y='8.75'>Red (633nm)</text></g></g></g><g partID='18592960' id='partLabel'><g transform='translate(33.6799,183.403)' ><g font-size='5' font-style='normal' font-weight='normal' fill='#000000' font-family="'DroidSans'" id='schematicLabel' fill-opacity='1' stroke='none' ><text x='0' y='3.75'>R1</text><text x='0' y='8.75'>220&#x3a9;</text><text x='0' y='13.75'>&#xb1;5%</text></g></g></g></svg>