<?xml version='1.0' encoding='UTF-8' standalone='no'?>
<!-- Created with Fritzing (http://www.fritzing.org/) -->
<svg xmlns:svg='http://www.w3.org/2000/svg' xmlns='http://www.w3.org/2000/svg' version='1.2' baseProfile='tiny' x='0in' y='0in' width='3.97008in' height='2.96746in' viewBox='0 0 285.846 213.657' >
<g partID='57750'><g transform='translate(81.9257,15.0267)' ><g id="schematic">
<rect id="rect7" width="57.6" fill="none" y="7.57879" x="7.57014" height="151.2" stroke="#000000" stroke-width="0.72" stroke-linecap="round"/>
<text id="label" font-family="'Droid Sans'" fill="#000000" font-size="4.32" text-anchor="middle" y="26.0814" x="36.3642">Raspberry PI</text>
<text id="label0" font-family="'Droid Sans'" fill="#555555" font-size="3.528" text-anchor="start" y="145.664" x="9.72">GP14</text>
<text id="text15" font-family="'Droid Sans'" fill="#555555" font-size="2.52" text-anchor="start" y="142.916" x="3.10949">19</text>
<text id="label1" font-family="'Droid Sans'" fill="#555555" font-size="3.528" text-anchor="start" y="152.839" x="9.40719">GP15</text>
<text id="text22" font-family="'Droid Sans'" fill="#555555" font-size="2.52" text-anchor="start" y="150.114" x="2.76187">20</text>
<text id="text83" font-family="'Droid Sans'" fill="#555555" font-size="3.528" text-anchor="middle" y="12.5311" x="21.9123">SW CLK</text>
<g transform="scale(0.9998883,1.0001117)">
<text id="text51" font-family="'Droid Sans'" fill="#555555" font-size="2.51972" text-anchor="middle" y="5.70896" x="19.2529" stroke-width="0.072">41</text>
</g>
<text id="text87" font-family="'Droid Sans'" fill="#555555" font-size="3.528" text-anchor="middle" y="12.5655" x="36.2518">SW GND</text>
<g transform="scale(0.9998883,1.0001117)">
<text id="text53" font-family="'Droid Sans'" fill="#555555" font-size="2.51972" text-anchor="start" y="5.73474" x="31.6522" stroke-width="0.072">42</text>
</g>
<text id="text79" font-family="'Droid Sans'" fill="#555555" font-size="3.528" text-anchor="end" y="152.839" x="63.2161">GP16</text>
<text id="text63" font-family="'Droid Sans'" fill="#555555" font-size="2.52" text-anchor="start" y="150.114" x="67.1622">21</text>
<text id="text81" font-family="'Droid Sans'" fill="#555555" font-size="3.528" text-anchor="end" y="145.639" x="63.0921">GP17</text>
<text id="text65" font-family="'Droid Sans'" fill="#555555" font-size="2.52" text-anchor="start" y="142.914" x="67.1844">22</text>
<text id="text44" font-family="'Droid Sans'" fill="#555555" font-size="3.528" text-anchor="start" y="131.3" x="9.72">GP13</text>
<text id="text46" font-family="'Droid Sans'" fill="#555555" font-size="2.52" text-anchor="start" y="128.552" x="3.10949">17</text>
<text id="text48" font-family="'Droid Sans'" fill="#555555" font-size="3.528" text-anchor="middle" y="156.351" x="36.2766">GND</text>
<text id="text60" font-family="'Droid Sans'" fill="#555555" font-size="3.528" text-anchor="start" y="116.9" x="9.72">GP11</text>
<text id="text62" font-family="'Droid Sans'" fill="#555555" font-size="2.52" text-anchor="start" y="114.152" x="3.10949">15</text>
<text id="text64" font-family="'Droid Sans'" fill="#555555" font-size="3.528" text-anchor="start" y="124.075" x="9.40719">GP12</text>
<text id="text66" font-family="'Droid Sans'" fill="#555555" font-size="2.52" text-anchor="start" y="121.35" x="2.76187">16</text>
<text id="text80" font-family="'Droid Sans'" fill="#555555" font-size="3.528" text-anchor="start" y="109.711" x="9.40719">GP10</text>
<text id="text82" font-family="'Droid Sans'" fill="#555555" font-size="2.52" text-anchor="start" y="106.986" x="2.76187">14</text>
<text id="text94" font-family="'Droid Sans'" fill="#555555" font-size="3.528" text-anchor="start" y="95.2748" x="9.40719">GP9</text>
<text id="text96" font-family="'Droid Sans'" fill="#555555" font-size="2.52" text-anchor="start" y="92.5502" x="2.76187">12</text>
<text id="text148" font-family="'Droid Sans'" fill="#555555" font-size="3.528" text-anchor="start" y="80.8999" x="9.72">GP7</text>
<text id="text150" font-family="'Droid Sans'" fill="#555555" font-size="2.52" text-anchor="start" y="78.1519" x="3.10949">10</text>
<text id="text152" font-family="'Droid Sans'" fill="#555555" font-size="3.528" text-anchor="start" y="88.0748" x="9.40719">GP8</text>
<text id="text154" font-family="'Droid Sans'" fill="#555555" font-size="2.52" text-anchor="start" y="85.3502" x="2.76187">11</text>
<text id="text168" font-family="'Droid Sans'" fill="#555555" font-size="3.528" text-anchor="start" y="73.7108" x="9.40719">GP6</text>
<text id="text170" font-family="'Droid Sans'" fill="#555555" font-size="2.52" text-anchor="start" y="71.0091" x="4.15837">9</text>
<text id="text180" font-family="'Droid Sans'" fill="#555555" font-size="3.528" text-anchor="start" y="52.1359" x="9.72">GP4</text>
<text id="text182" font-family="'Droid Sans'" fill="#555555" font-size="2.52" text-anchor="start" y="49.4108" x="4.50598">6</text>
<text id="text184" font-family="'Droid Sans'" fill="#555555" font-size="3.528" text-anchor="start" y="59.3108" x="9.40719">GP5</text>
<text id="text186" font-family="'Droid Sans'" fill="#555555" font-size="2.52" text-anchor="start" y="56.6091" x="4.15837">7</text>
<text id="text196" font-family="'Droid Sans'" fill="#555555" font-size="3.528" text-anchor="start" y="37.7719" x="9.72">GP2</text>
<text id="text198" font-family="'Droid Sans'" fill="#555555" font-size="2.52" text-anchor="start" y="35.0468" x="4.50598">4</text>
<text id="text200" font-family="'Droid Sans'" fill="#555555" font-size="3.528" text-anchor="start" y="44.9468" x="9.40719">GP3</text>
<text id="text202" font-family="'Droid Sans'" fill="#555555" font-size="2.52" text-anchor="start" y="42.2451" x="4.15837">5</text>
<text id="text214" font-family="'Droid Sans'" fill="#555555" font-size="2.52" text-anchor="start" y="162.395" x="23.6591">3,8,13,18</text>
<text id="text220" font-family="'Droid Sans'" fill="#555555" font-size="3.528" text-anchor="start" y="23.3468" x="9.72">GP1</text>
<text id="text222" font-family="'Droid Sans'" fill="#555555" font-size="2.52" text-anchor="start" y="20.6217" x="4.50598">2</text>
<text id="text228" font-family="'Droid Sans'" fill="#555555" font-size="3.528" text-anchor="start" y="16.0857" x="9.40719">GP0</text>
<text id="text230" font-family="'Droid Sans'" fill="#555555" font-size="2.52" text-anchor="start" y="13.384" x="4.15837">1</text>
<text id="text236" font-family="'Droid Sans'" fill="#555555" font-size="3.528" text-anchor="middle" y="12.5655" x="50.6166">SW DIO</text>
<g transform="scale(0.9998883,1.0001117)">
<text id="text238" font-family="'Droid Sans'" fill="#555555" font-size="2.51972" text-anchor="start" y="5.73474" x="46.0153" stroke-width="0.072">43</text>
</g>
<text id="text248" font-family="'Droid Sans'" fill="#555555" font-size="3.528" text-anchor="end" y="131.24" x="63.0921">GP18</text>
<text id="text250" font-family="'Droid Sans'" fill="#555555" font-size="2.52" text-anchor="start" y="128.516" x="67.1844">24</text>
<text id="text260" font-family="'Droid Sans'" fill="#555555" font-size="3.528" text-anchor="end" y="124.04" x="63.2161">GP19</text>
<text id="text262" font-family="'Droid Sans'" fill="#555555" font-size="2.52" text-anchor="start" y="121.316" x="67.1622">25</text>
<text id="text264" font-family="'Droid Sans'" fill="#555555" font-size="3.528" text-anchor="end" y="116.84" x="63.0921">GP20</text>
<text id="text266" font-family="'Droid Sans'" fill="#555555" font-size="2.52" text-anchor="start" y="114.116" x="67.1844">26</text>
<text id="text276" font-family="'Droid Sans'" fill="#555555" font-size="3.528" text-anchor="end" y="109.642" x="63.2161">GP21</text>
<text id="text278" font-family="'Droid Sans'" fill="#555555" font-size="2.52" text-anchor="start" y="106.917" x="67.1622">27</text>
<text id="text292" font-family="'Droid Sans'" fill="#555555" font-size="3.528" text-anchor="end" y="95.2403" x="63.2161">GP22</text>
<text id="text294" font-family="'Droid Sans'" fill="#555555" font-size="2.52" text-anchor="start" y="92.5157" x="67.1622">29</text>
<text id="text296" font-family="'Droid Sans'" fill="#555555" font-size="3.528" text-anchor="end" y="88.0403" x="63.0921">RUN</text>
<text id="text298" font-family="'Droid Sans'" fill="#555555" font-size="2.52" text-anchor="start" y="85.3157" x="67.1844">30</text>
<text id="text308" font-family="'Droid Sans'" fill="#555555" font-size="3.528" text-anchor="end" y="80.8419" x="63.2161">GP26_A0</text>
<text id="text310" font-family="'Droid Sans'" fill="#555555" font-size="2.52" text-anchor="start" y="78.1173" x="67.1622">31</text>
<text id="text312" font-family="'Droid Sans'" fill="#555555" font-size="3.528" text-anchor="end" y="73.6419" x="63.0921">GP27_A1</text>
<text id="text314" font-family="'Droid Sans'" fill="#555555" font-size="2.52" text-anchor="start" y="70.9173" x="67.1844">32</text>
<text id="text324" font-family="'Droid Sans'" fill="#555555" font-size="3.528" text-anchor="end" y="66.4419" x="63.2161">AGND</text>
<text id="text326" font-family="'Droid Sans'" fill="#555555" font-size="2.52" text-anchor="start" y="63.7173" x="67.1622">33</text>
<text id="text328" font-family="'Droid Sans'" fill="#555555" font-size="3.528" text-anchor="end" y="59.2419" x="63.0921">GP28_A2</text>
<text id="text330" font-family="'Droid Sans'" fill="#555555" font-size="2.52" text-anchor="start" y="56.5173" x="67.1844">34</text>
<text id="text340" font-family="'Droid Sans'" fill="#555555" font-size="3.528" text-anchor="end" y="52.0434" x="63.2161">ADC_VREF</text>
<text id="text342" font-family="'Droid Sans'" fill="#555555" font-size="2.52" text-anchor="start" y="49.3188" x="67.1622">35</text>
<text id="text344" font-family="'Droid Sans'" fill="#555555" font-size="3.528" text-anchor="end" y="44.8434" x="63.0921">3V3</text>
<text id="text346" font-family="'Droid Sans'" fill="#555555" font-size="2.52" text-anchor="start" y="42.1188" x="67.1844">36</text>
<text id="text356" font-family="'Droid Sans'" fill="#555555" font-size="3.528" text-anchor="end" y="37.6403" x="63.2161">3V3_EN</text>
<text id="text358" font-family="'Droid Sans'" fill="#555555" font-size="2.52" text-anchor="start" y="34.9157" x="67.1622">37</text>
<text id="text372" font-family="'Droid Sans'" fill="#555555" font-size="3.528" text-anchor="end" y="23.2419" x="63.2161">VSS</text>
<text id="text374" font-family="'Droid Sans'" fill="#555555" font-size="2.52" text-anchor="start" y="20.5173" x="67.1622">39</text>
<text id="text376" font-family="'Droid Sans'" fill="#555555" font-size="3.528" text-anchor="end" y="16.0419" x="63.0921">VBUS</text>
<text id="text378" font-family="'Droid Sans'" fill="#555555" font-size="2.52" text-anchor="start" y="13.3173" x="67.1844">40</text>
<text id="text388" font-family="'Droid Sans'" fill="#000000" font-size="4.32" text-anchor="middle" y="33.2938" x="36.3642">Pico</text>
<line y1="14.8357" y2="14.8357" id="connector0pin" fill="none" x1="0.365127" x2="7.2188" stroke="#555555" stroke-width="0.72" stroke-linecap="round"/>
<g id="connector0terminal" width="0.72" fill="none" y="14.4657" x="0.0101433" height="0.72" stroke-width="0"/>
<line y1="22.0717" y2="22.0717" id="connector1pin" fill="none" x1="0.365127" x2="7.2188" stroke="#555555" stroke-width="0.72" stroke-linecap="round"/>
<g id="connector1terminal" width="0.72" fill="none" y="21.7217" x="0.0101433" height="0.72" stroke-width="0"/>
<line y1="165.955" y2="159.101" id="connector2pin" fill="none" x1="36.36" x2="36.36" stroke="#555555" stroke-width="0.72" stroke-linecap="round"/>
<g transform="rotate(-90)">
<g id="connector2terminal" width="0.72" fill="none" y="36" x="-166.32" height="0.72" stroke-width="0"/>
</g>
<line y1="36.4968" y2="36.4968" id="connector3pin" fill="none" x1="0.365127" x2="7.2188" stroke="#555555" stroke-width="0.72" stroke-linecap="round"/>
<g id="connector3terminal" width="0.72" fill="none" y="36.1468" x="0.0101433" height="0.72" stroke-width="0"/>
<line y1="43.6968" y2="43.6968" id="connector4pin" fill="none" x1="0.365127" x2="7.2188" stroke="#555555" stroke-width="0.72" stroke-linecap="round"/>
<g id="connector4terminal" width="0.72" fill="none" y="43.3268" x="0.0101433" height="0.72" stroke-width="0"/>
<line y1="50.8608" y2="50.8608" id="connector5pin" fill="none" x1="0.365127" x2="7.2188" stroke="#555555" stroke-width="0.72" stroke-linecap="round"/>
<g id="connector5terminal" width="0.72" fill="none" y="50.5108" x="0.0101433" height="0.72" stroke-width="0"/>
<line y1="58.0608" y2="58.0608" id="connector6pin" fill="none" x1="0.365127" x2="7.2188" stroke="#555555" stroke-width="0.72" stroke-linecap="round"/>
<g id="connector6terminal" width="0.72" fill="none" y="57.6908" x="0.0101433" height="0.72" stroke-width="0"/>
<line y1="165.955" y2="159.101" id="connector7pin" fill="none" x1="36.36" x2="36.36" stroke="#555555" stroke-width="0.72" stroke-linecap="round"/>
<g id="connector7terminal" width="0.72" fill="none" y="165.6" x="36" height="0.72" stroke-width="0"/>
<line y1="72.4608" y2="72.4608" id="connector8pin" fill="none" x1="0.365127" x2="7.2188" stroke="#555555" stroke-width="0.72" stroke-linecap="round"/>
<g id="connector8terminal" width="0.72" fill="none" y="72.0908" x="0.0101433" height="0.72" stroke-width="0"/>
<line y1="79.6248" y2="79.6248" id="connector9pin" fill="none" x1="0.365127" x2="7.2188" stroke="#555555" stroke-width="0.72" stroke-linecap="round"/>
<g id="connector9terminal" width="0.72" fill="none" y="79.2748" x="0.0101433" height="0.72" stroke-width="0"/>
<line y1="86.8248" y2="86.8248" id="connector10pin" fill="none" x1="0.365127" x2="7.2188" stroke="#555555" stroke-width="0.72" stroke-linecap="round"/>
<g id="connector10terminal" width="0.72" fill="none" y="86.4548" x="0.0101433" height="0.72" stroke-width="0"/>
<line y1="94.0248" y2="94.0248" id="connector11pin" fill="none" x1="0.365127" x2="7.2188" stroke="#555555" stroke-width="0.72" stroke-linecap="round"/>
<g id="connector11terminal" width="0.72" fill="none" y="93.6548" x="0.0101433" height="0.72" stroke-width="0"/>
<line y1="165.955" y2="159.101" id="connector12pin" fill="none" x1="36.36" x2="36.36" stroke="#555555" stroke-width="0.72" stroke-linecap="round"/>
<g id="connector12terminal" width="0.72" fill="none" y="165.6" x="36" height="0.72" stroke-width="0"/>
<line y1="108.461" y2="108.461" id="connector13pin" fill="none" x1="0.365127" x2="7.2188" stroke="#555555" stroke-width="0.72" stroke-linecap="round"/>
<g id="connector13terminal" width="0.72" fill="none" y="108.091" x="0.0101433" height="0.72" stroke-width="0"/>
<line y1="115.625" y2="115.625" id="connector14pin" fill="none" x1="0.365127" x2="7.2188" stroke="#555555" stroke-width="0.72" stroke-linecap="round"/>
<g id="connector14terminal" width="0.72" fill="none" y="115.275" x="0.0101433" height="0.72" stroke-width="0"/>
<line y1="122.825" y2="122.825" id="connector15pin" fill="none" x1="0.365127" x2="7.2188" stroke="#555555" stroke-width="0.72" stroke-linecap="round"/>
<g id="connector15terminal" width="0.72" fill="none" y="122.455" x="0.0101433" height="0.72" stroke-width="0"/>
<line y1="130.025" y2="130.025" id="connector16pin" fill="none" x1="0.365127" x2="7.2188" stroke="#555555" stroke-width="0.72" stroke-linecap="round"/>
<g id="connector16terminal" width="0.72" fill="none" y="129.675" x="0.0101433" height="0.72" stroke-width="0"/>
<line y1="165.955" y2="159.101" id="connector17pin" fill="none" x1="36.36" x2="36.36" stroke="#555555" stroke-width="0.72" stroke-linecap="round"/>
<g id="connector17terminal" width="0.72" fill="none" y="165.6" x="36" height="0.72" stroke-width="0"/>
<line y1="144.389" y2="144.389" id="connector18pin" fill="none" x1="0.365127" x2="7.2188" stroke="#555555" stroke-width="0.72" stroke-linecap="round"/>
<g id="connector18terminal" width="0.72" fill="none" y="144.039" x="0.0101433" height="0.72" stroke-width="0"/>
<line y1="151.589" y2="151.589" id="connector19pin" fill="none" x1="0.365127" x2="7.2188" stroke="#555555" stroke-width="0.72" stroke-linecap="round"/>
<g id="connector19terminal" width="0.72" fill="none" y="151.219" x="0.0101433" height="0.72" stroke-width="0"/>
<line y1="151.555" y2="151.555" id="connector20pin" fill="none" x1="65.4934" x2="72.3334" stroke="#555555" stroke-width="0.72" stroke-linecap="round"/>
<g id="connector20terminal" width="0.72" fill="none" y="151.195" x="71.9734" height="0.72" stroke-width="0"/>
<line y1="144.355" y2="144.355" id="connector21pin" fill="none" x1="65.4934" x2="72.3334" stroke="#555555" stroke-width="0.72" stroke-linecap="round"/>
<g id="connector21terminal" width="0.72" fill="none" y="144.067" x="71.9734" height="0.72" stroke-width="0"/>
<line y1="159.115" y2="165.955" id="connector22pin" fill="none" x1="36.36" x2="36.36" stroke="#555555" stroke-width="0.72" stroke-linecap="round"/>
<g id="connector22terminal" width="0.72" fill="none" y="165.6" x="36" height="0.72" stroke-width="0"/>
<line y1="129.956" y2="129.956" id="connector23pin" fill="none" x1="65.4934" x2="72.3334" stroke="#555555" stroke-width="0.72" stroke-linecap="round"/>
<g id="connector23terminal" width="0.72" fill="none" y="129.668" x="71.9734" height="0.72" stroke-width="0"/>
<line y1="122.756" y2="122.756" id="connector24pin" fill="none" x1="65.4934" x2="72.3334" stroke="#555555" stroke-width="0.72" stroke-linecap="round"/>
<g id="connector24terminal" width="0.72" fill="none" y="122.396" x="71.9734" height="0.72" stroke-width="0"/>
<line y1="115.556" y2="115.556" id="connector25pin" fill="none" x1="65.4934" x2="72.3334" stroke="#555555" stroke-width="0.72" stroke-linecap="round"/>
<g id="connector25terminal" width="0.72" fill="none" y="115.268" x="71.9734" height="0.72" stroke-width="0"/>
<line y1="108.358" y2="108.358" id="connector26pin" fill="none" x1="65.4934" x2="72.3334" stroke="#555555" stroke-width="0.72" stroke-linecap="round"/>
<g id="connector26terminal" width="0.72" fill="none" y="107.998" x="71.9734" height="0.72" stroke-width="0"/>
<line y1="159.115" y2="165.955" id="connector27pin" fill="none" x1="36.36" x2="36.36" stroke="#555555" stroke-width="0.72" stroke-linecap="round"/>
<g id="connector27terminal" width="0.72" fill="none" y="165.6" x="36" height="0.72" stroke-width="0"/>
<line y1="93.9564" y2="93.9564" id="connector28pin" fill="none" x1="65.4934" x2="72.3334" stroke="#555555" stroke-width="0.72" stroke-linecap="round"/>
<g id="connector28terminal" width="0.72" fill="none" y="93.5964" x="71.9734" height="0.72" stroke-width="0"/>
<line y1="86.7564" y2="86.7564" id="connector29pin" fill="none" x1="65.4934" x2="72.3334" stroke="#555555" stroke-width="0.72" stroke-linecap="round"/>
<g id="connector29terminal" width="0.72" fill="none" y="86.4684" x="71.9734" height="0.72" stroke-width="0"/>
<line y1="79.558" y2="79.558" id="connector30pin" fill="none" x1="65.4934" x2="72.3334" stroke="#555555" stroke-width="0.72" stroke-linecap="round"/>
<g id="connector30terminal" width="0.72" fill="none" y="79.198" x="71.9734" height="0.72" stroke-width="0"/>
<line y1="72.358" y2="72.358" id="connector31pin" fill="none" x1="65.4934" x2="72.3334" stroke="#555555" stroke-width="0.72" stroke-linecap="round"/>
<g id="connector31terminal" width="0.72" fill="none" y="72.07" x="71.9734" height="0.72" stroke-width="0"/>
<line y1="65.158" y2="65.158" id="connector32pin" fill="none" x1="65.4934" x2="72.3334" stroke="#555555" stroke-width="0.72" stroke-linecap="round"/>
<g id="connector32terminal" width="0.72" fill="none" y="64.798" x="71.9734" height="0.72" stroke-width="0"/>
<line y1="57.958" y2="57.958" id="connector33pin" fill="none" x1="65.4934" x2="72.3334" stroke="#555555" stroke-width="0.72" stroke-linecap="round"/>
<g id="connector33terminal" width="0.72" fill="none" y="57.67" x="71.9734" height="0.72" stroke-width="0"/>
<line y1="50.7595" y2="50.7595" id="connector34pin" fill="none" x1="65.4934" x2="72.3334" stroke="#555555" stroke-width="0.72" stroke-linecap="round"/>
<g id="connector34terminal" width="0.72" fill="none" y="50.3995" x="71.9734" height="0.72" stroke-width="0"/>
<line y1="43.5595" y2="43.5595" id="connector35pin" fill="none" x1="65.4934" x2="72.3334" stroke="#555555" stroke-width="0.72" stroke-linecap="round"/>
<g id="connector35terminal" width="0.72" fill="none" y="43.2715" x="71.9734" height="0.72" stroke-width="0"/>
<line y1="36.3564" y2="36.3564" id="connector36pin" fill="none" x1="65.4934" x2="72.3334" stroke="#555555" stroke-width="0.72" stroke-linecap="round"/>
<g id="connector36terminal" width="0.72" fill="none" y="35.9964" x="71.9734" height="0.72" stroke-width="0"/>
<line y1="165.955" y2="159.115" id="connector37pin" fill="none" x1="36.36" x2="36.36" stroke="#555555" stroke-width="0.72" stroke-linecap="round"/>
<g id="connector37terminal" width="0.72" fill="none" y="165.6" x="36" height="0.72" stroke-width="0"/>
<line y1="21.9579" y2="21.9579" id="connector38pin" fill="none" x1="65.4934" x2="72.3334" stroke="#555555" stroke-width="0.72" stroke-linecap="round"/>
<g id="connector38terminal" width="0.72" fill="none" y="21.5979" x="71.9734" height="0.72" stroke-width="0"/>
<line y1="14.758" y2="14.758" id="connector39pin" fill="none" x1="65.4934" x2="72.3334" stroke="#555555" stroke-width="0.72" stroke-linecap="round"/>
<g id="connector39terminal" width="0.72" fill="none" y="14.47" x="71.9734" height="0.72" stroke-width="0"/>
<line y1="0.714868" y2="7.55487" id="connector40pin" fill="none" x1="21.9481" x2="21.9481" stroke="#555555" stroke-width="0.72" stroke-linecap="round"/>
<g id="connector40terminal" width="0.72" fill="none" y="1.02318e-15" x="21.5881" height="0.72" stroke-width="0"/>
<line y1="0.714868" y2="7.55487" id="connector41pin" fill="none" x1="36.3488" x2="36.3488" stroke="#555555" stroke-width="0.72" stroke-linecap="round"/>
<g id="connector41terminal" width="0.72" fill="none" y="1.02318e-15" x="35.9888" height="0.72" stroke-width="0"/>
<line y1="0.714868" y2="7.55487" id="connector42pin" fill="none" x1="50.7135" x2="50.7135" stroke="#555555" stroke-width="0.72" stroke-linecap="round"/>
<g id="connector42terminal" width="0.72" fill="none" y="1.02318e-15" x="50.3535" height="0.72" stroke-width="0"/>
<text id="text361" font-family="'Droid Sans'" fill="#555555" font-size="2.52" text-anchor="start" y="162.38" x="38.0591">23,28,38</text>
</g>
</g></g><g partID='18583510'><g transform='translate(190.386,29.5276)' ><g id="schematic">
<metadata id="CorelCorpID_0Corel-Layer"/>
<rect width="42.2997" fill="white" y="8.00038" x="0.359917" height="35.1003" stroke="black" stroke-width="0.719998" stroke-linecap="round"/>
<line y1="43.1998" y2="50.4001" id="connector0pin" fill="none" x1="21.5098" gorn="0.0.7" x2="21.5098" stroke="#787878" stroke-width="0.69987" stroke-linecap="round"/>
<g transform="matrix(-8.01198e-14, -1, 1, -8.01198e-14, -1.19111, 63.4387)">
<g>
<text font-weight="normal" font-family="Droid Sans" fill="#606062" font-size="3.49991" y="24.0732" x="22.0597">GND</text>
</g>
</g>
<g id="connector0terminal" width="0.699769" fill="none" text-anchor="start" y="50.4001" gorn="0.0.9" x="21.1599" height="0.699774"/>
<line y1="0.700402" y2="7.90005" id="connector1pin" fill="none" x1="21.5098" gorn="0.0.10" x2="21.5098" stroke="#787878" stroke-width="0.69987" stroke-linecap="round"/>
<g transform="matrix(-8.01198e-14, -1, 1, -8.01198e-14, -1.19082, 31.6724)">
<g>
<text font-weight="normal" font-family="Droid Sans" fill="#606062" font-size="3.49991" y="24.0732" x="15.9912">VCC</text>
</g>
</g>
<g id="connector1terminal" width="0.699769" fill="none" text-anchor="end" gorn="0.0.12" x="21.1599" height="0.699774"/>
<line y1="21.9501" y2="21.9501" id="connector2pin" fill="none" x1="42.7593" gorn="0.0.1" x2="49.9595" stroke="#787878" stroke-width="0.69987" stroke-linecap="round"/>
<g transform="matrix(1, 0, 0, 1, 18.5107, -0.62504)">
<g>
<text font-weight="normal" font-family="Droid Sans" fill="#606062" font-size="3.49991" y="24.0732" x="15.7555">SDA</text>
</g>
</g>
<g id="connector2terminal" width="0.699769" fill="none" text-anchor="end" y="21.6002" gorn="0.0.3" x="49.9595" height="0.699774"/>
<line y1="29.1504" y2="29.1504" id="connector3pin" fill="none" x1="42.7593" gorn="0.0.4" x2="49.9595" stroke="#787878" stroke-width="0.69987" stroke-linecap="round"/>
<g transform="matrix(1, 0, 0, 1, 18.7238, 6.62516)">
<g>
<text font-weight="normal" font-family="Droid Sans" fill="#606062" font-size="3.49991" y="24.0732" x="16.4139">SCL</text>
</g>
</g>
<g id="connector3terminal" width="0.699769" fill="none" text-anchor="end" y="28.8005" gorn="0.0.6" x="49.9595" height="0.699774"/>
<g transform="matrix(1, 0, 0, 1, -0.63099, -0.479906)">
<g>
<text id="label" font-weight="500" font-family="OCRA" fill="black" font-size="4.24996" y="24.0732" x="11.4239">LCD2004</text>
</g>
</g>
<g transform="matrix(1, 0, 0, 1, -0.572879, 5.76823)">
<g>
<text id="label_0" font-weight="500" font-family="OCRA" fill="black" font-size="4.24996" y="24.0732" x="17.5011">I2C</text>
</g>
</g>
</g>
</g></g><g partID='18592220'><g transform='translate(31.6799,199.977)' ><g transform='matrix(0,1,1,0,0,0)'  ><g id="schematic">
<g>
<path d="M13.5,14.966L9.9,14.966c-0.193,0,-0.35,-0.156,-0.35,-0.35s0.156,-0.35,0.35,-0.35L13.5,14.266c0.193,0,0.35,0.156,0.35,0.35S13.694,14.966,13.5,14.966z"/>
</g>
<g>
<path d="M9.9,14.966L6.3,14.966c-0.193,0,-0.35,-0.156,-0.35,-0.35s0.157,-0.35,0.35,-0.35l3.6,0c0.193,0,0.35,0.156,0.35,0.35S10.093,14.966,9.9,14.966z"/>
</g>
<g>
<polygon fill="#FFFFFF" points="9.9,14.616,6.3,7.416,9.9,7.416,13.5,7.416"/>
<path d="M9.9,15.398L5.734,7.066l8.333,0L9.9,15.398zM6.866,7.766L9.9,13.834l3.034,-6.068L6.866,7.766z"/>
</g>
<g>
<path d="M9.9,14.841c-0.124,0,-0.225,-0.101,-0.225,-0.225l0,-7.2c0,-0.124,0.101,-0.225,0.225,-0.225s0.225,0.101,0.225,0.225l0,7.2C10.124,14.74,10.024,14.841,9.9,14.841z"/>
</g>
<g>
<path d="M1.8,12.141c-0.058,0,-0.115,-0.021,-0.159,-0.065c-0.088,-0.088,-0.088,-0.23,0,-0.318l2.34,-2.341c0.088,-0.088,0.23,-0.088,0.318,0s0.088,0.23,0,0.318l-2.34,2.341C1.915,12.12,1.858,12.141,1.8,12.141z"/>
</g>
<g>
<path d="M2.16,15.381c-0.058,0,-0.115,-0.021,-0.159,-0.065c-0.088,-0.088,-0.088,-0.23,0,-0.318l2.34,-2.34c0.088,-0.088,0.23,-0.088,0.318,0s0.088,0.23,0,0.318l-2.34,2.34C2.276,15.359,2.218,15.381,2.16,15.381z"/>
</g>
<g id="connector0pin">
<path d="M9.9,22.166c-0.193,0,-0.35,-0.156,-0.35,-0.35l0,-7.2c0,-0.193,0.156,-0.35,0.35,-0.35s0.35,0.156,0.35,0.35l0,7.2C10.249,22.01,10.093,22.166,9.9,22.166z" fill="#787878"/>
</g>
<g id="connector0terminal">
<rect width="0.001" fill="none" y="21.816" x="9.9" height="0.001"/>
</g>
<g transform="matrix(1, 0, 0, 1, 3.429, 6.4262)">
<g>
<g transform="rotate(270)">
<g>
<g enable-background="new    ">
<path d="M-11.647,5.54l-0.891,0L-12.538,5.388l0.342,-0.372c0.049,-0.053,0.093,-0.101,0.131,-0.145s0.071,-0.086,0.099,-0.128c0.026,-0.042,0.047,-0.084,0.062,-0.125c0.015,-0.043,0.021,-0.088,0.021,-0.138c0,-0.038,-0.005,-0.072,-0.017,-0.102s-0.027,-0.054,-0.047,-0.075c-0.021,-0.02,-0.045,-0.035,-0.073,-0.046s-0.06,-0.016,-0.094,-0.016c-0.062,0,-0.118,0.013,-0.167,0.038c-0.051,0.024,-0.098,0.057,-0.143,0.096l-0.1,-0.116c0.025,-0.023,0.055,-0.046,0.084,-0.065c0.029,-0.021,0.063,-0.039,0.097,-0.054s0.071,-0.026,0.109,-0.036c0.038,-0.008,0.079,-0.013,0.121,-0.013c0.063,0,0.119,0.009,0.169,0.026c0.051,0.018,0.094,0.043,0.129,0.076c0.035,0.032,0.063,0.072,0.082,0.119c0.019,0.048,0.028,0.101,0.028,0.16c0,0.056,-0.009,0.108,-0.026,0.158c-0.017,0.05,-0.041,0.1,-0.07,0.148c-0.031,0.048,-0.066,0.097,-0.109,0.146c-0.041,0.049,-0.087,0.1,-0.136,0.152L-12.32,5.37l0,0.008l0.673,0L-11.647,5.54z" fill="#787878"/>
</g>
</g>
</g>
</g>
</g>
<g id="connector1pin">
<path d="M9.9,7.766c-0.193,0,-0.35,-0.157,-0.35,-0.35l0,-7.2c0,-0.193,0.156,-0.35,0.35,-0.35s0.35,0.157,0.35,0.35l0,7.2C10.249,7.609,10.093,7.766,9.9,7.766z" fill="#787878"/>
</g>
<g id="connector1terminal">
<polygon fill="none" points="9.9,0.216,9.901,0.216,9.901,0.216"/>
</g>
<g transform="matrix(1, 0, 0, 1, 3.429, 1.3462)">
<g>
<g transform="rotate(270)">
<g>
<g enable-background="new    ">
<path d="M-2.616,5.54l-0.172,0L-2.788,4.648c0,-0.028,0,-0.058,0,-0.09s0.001,-0.063,0.002,-0.095c0.001,-0.032,0.002,-0.063,0.003,-0.092c0.001,-0.028,0.002,-0.054,0.002,-0.076c-0.011,0.012,-0.021,0.021,-0.029,0.03s-0.017,0.017,-0.026,0.024s-0.018,0.016,-0.028,0.025c-0.01,0.008,-0.021,0.019,-0.035,0.03l-0.145,0.118l-0.094,-0.12l0.374,-0.292l0.146,0L-2.618,5.54z" fill="#787878"/>
</g>
</g>
</g>
</g>
</g>
<g>
<path d="M0.18,13.536l1.08,-2.521l1.44,1.438L0.18,13.536z"/>
</g>
<g>
<path d="M0.54,16.776l1.08,-2.521l1.438,1.438L0.54,16.776z"/>
</g>
</g>
</g></g></g><g partID='18592960'><g transform='translate(6.192,180.727)' ><g transform='matrix(0,1,-1,0,0,0)'  ><g id="schematic" xmlns="http://www.w3.org/2000/svg">
<line y1="3.096" y2="0.216" x1="7.55002" xmlns="http://www.w3.org/2000/svg" class="other" x2="8.63003" stroke="#000000" stroke-width="0.432002" stroke-linecap="round"/>
<line y1="0.216" y2="5.976" x1="8.63003" xmlns="http://www.w3.org/2000/svg" class="other" x2="10.43" stroke="#000000" stroke-width="0.432002" stroke-linecap="round"/>
<line y1="5.976" y2="0.216" x1="10.43" xmlns="http://www.w3.org/2000/svg" class="other" x2="12.23" stroke="#000000" stroke-width="0.432002" stroke-linecap="round"/>
<line y1="0.216" y2="5.976" x1="12.23" xmlns="http://www.w3.org/2000/svg" class="other" x2="14.03" stroke="#000000" stroke-width="0.432002" stroke-linecap="round"/>
<line y1="5.976" y2="0.216" x1="14.03" xmlns="http://www.w3.org/2000/svg" class="other" x2="15.8301" stroke="#000000" stroke-width="0.432002" stroke-linecap="round"/>
<line y1="0.216" y2="5.976" x1="15.8301" xmlns="http://www.w3.org/2000/svg" class="other" x2="17.6301" stroke="#000000" stroke-width="0.432002" stroke-linecap="round"/>
<line y1="5.976" y2="0.216" x1="17.6301" xmlns="http://www.w3.org/2000/svg" class="other" x2="19.4301" stroke="#000000" stroke-width="0.432002" stroke-linecap="round"/>
<line y1="0.216" y2="5.976" x1="19.4301" xmlns="http://www.w3.org/2000/svg" class="other" x2="21.2301" stroke="#000000" stroke-width="0.432002" stroke-linecap="round"/>
<line y1="5.976" y2="3.096" x1="21.2301" xmlns="http://www.w3.org/2000/svg" class="other" x2="21.9501" stroke="#000000" stroke-width="0.432002" stroke-linecap="round"/>
<line y1="3.096" y2="3.096" id="connector1pin" x1="29.1502" connectorname="2" xmlns="http://www.w3.org/2000/svg" class="pin" x2="21.9501" stroke="#787878" stroke-width="0.700001" stroke-linecap="round"/>
<g id="connector1terminal" width="0.000283466" fill="none" y="3.096" xmlns="http://www.w3.org/2000/svg" class="terminal" x="29.1502" height="0.000283465" stroke="none" stroke-width="0"/>
<text font-family="'Droid Sans'" fill="#8c8c8c" font-size="2.50001" text-anchor="middle" y="2.046" xmlns="http://www.w3.org/2000/svg" class="text" x="25.5501" stroke="none" stroke-width="0">2</text>
<line y1="3.096" y2="3.096" id="connector0pin" x1="0.350001" connectorname="1" xmlns="http://www.w3.org/2000/svg" class="pin" x2="7.55002" stroke="#787878" stroke-width="0.700001" stroke-linecap="round"/>
<g id="connector0terminal" width="0.000283466" fill="none" y="3.096" xmlns="http://www.w3.org/2000/svg" class="terminal" x="0.350001" height="0.000283465" stroke="none" stroke-width="0"/>
<text font-family="'Droid Sans'" fill="#8c8c8c" font-size="2.50001" text-anchor="middle" y="2.046" xmlns="http://www.w3.org/2000/svg" class="text" x="3.95001" stroke="none" stroke-width="0">1</text>
</g>
</g></g></g><g partID='18585130'><line stroke-linecap='round' stroke='#404040' x1='211.896' y1='29.8775' x2='154.259' y2='29.8567' stroke-width='0.699998' /></g><g partID='18586770'><line stroke-linecap='round' stroke='#404040' x1='211.809' y1='181.172' x2='211.896' y2='80.2776' stroke-width='0.699998' /></g><g partID='18585200'><line stroke-linecap='round' stroke='#404040' x1='118.286' y1='180.987' x2='211.809' y2='181.172' stroke-width='0.699998' /></g><circle  fill="black" cx="118.286" cy="180.987" r="1.44" stroke-width="0" stroke="none" /><g partID='18586420'><line stroke-linecap='round' stroke='#404040' x1='240.538' y1='8.15157' x2='53.6377' y2='8.15157' stroke-width='0.699998' /></g><g partID='18586470'><line stroke-linecap='round' stroke='#404040' x1='53.6377' y1='8.15157' x2='53.6377' y2='65.9325' stroke-width='0.699998' /></g><g partID='18585430'><line stroke-linecap='round' stroke='#404040' x1='240.696' y1='51.4777' x2='240.538' y2='8.15157' stroke-width='0.699998' /></g><g partID='18586520'><line stroke-linecap='round' stroke='#404040' x1='53.6377' y1='65.9325' x2='82.2959' y2='65.8975' stroke-width='0.699998' /></g><g partID='18586720'><line stroke-linecap='round' stroke='#404040' x1='46.2133' y1='73.0341' x2='82.2959' y2='73.0775' stroke-width='0.699998' /></g><g partID='18586670'><line stroke-linecap='round' stroke='#404040' x1='46.2133' y1='1.05' x2='46.2133' y2='73.0341' stroke-width='0.699998' /></g><g partID='18585500'><line stroke-linecap='round' stroke='#404040' x1='240.696' y1='58.678' x2='247.962' y2='58.831' stroke-width='0.699998' /></g><g partID='18586620'><line stroke-linecap='round' stroke='#404040' x1='247.962' y1='1.05' x2='46.2133' y2='1.05' stroke-width='0.699998' /></g><g partID='18586570'><line stroke-linecap='round' stroke='#404040' x1='247.962' y1='58.831' x2='247.962' y2='1.05' stroke-width='0.699998' /></g><g partID='18594010'><line stroke-linecap='round' stroke='#404040' x1='3.18171' y1='166.851' x2='82.2959' y2='166.606' stroke-width='0.699998' /></g><g partID='18594020'><line stroke-linecap='round' stroke='#404040' x1='3.09586' y1='181.077' x2='3.18171' y2='166.851' stroke-width='0.699998' /></g><g partID='18594130'><line stroke-linecap='round' stroke='#404040' x1='24.7645' y1='210.016' x2='3.09586' y2='209.878' stroke-width='0.699998' /></g><g partID='18594140'><line stroke-linecap='round' stroke='#404040' x1='31.8959' y1='209.878' x2='24.7645' y2='210.016' stroke-width='0.699998' /></g><g partID='18594250'><line stroke-linecap='round' stroke='#404040' x1='118.434' y1='210.016' x2='53.4964' y2='209.878' stroke-width='0.699998' /></g><g partID='18594260'><line stroke-linecap='round' stroke='#404040' x1='118.286' y1='180.987' x2='118.434' y2='210.016' stroke-width='0.699998' /></g><circle  fill="black" cx="118.286" cy="180.987" r="1.44" stroke-width="0" stroke="none" /><g partID='18583510' id='partLabel'><g transform='translate(241.046,23.9276)' ><g font-size='5' font-style='normal' font-weight='normal' fill='#000000' font-family="'DroidSans'" id='schematicLabel' fill-opacity='1' stroke='none' ><text x='0' y='3.75'>LCD2004-I2C1</text></g></g></g><g partID='57750' id='partLabel'><g transform='translate(154.624,9.42672)' ><g font-size='5' font-style='normal' font-weight='normal' fill='#000000' font-family="'DroidSans'" id='schematicLabel' fill-opacity='1' stroke='none' ><text x='0' y='3.75'>Mod1</text></g></g></g><g partID='18592220' id='partLabel'><g transform='translate(49.5354,184.602)' ><g font-size='5' font-style='normal' font-weight='normal' fill='#000000' font-family="'DroidSans'" id='schematicLabel' fill-opacity='1' stroke='none' ><text x='0' y='3.75'>LED1</text><text x='0' y='8.75'>Red (633nm)</text></g></g></g><g partID='18592960' id='partLabel'><g transform='translate(17.846,176.381)' ><g font-size='5' font-style='normal' font-weight='normal' fill='#000000' font-family="'DroidSans'" id='schematicLabel' fill-opacity='1' stroke='none' ><text x='0' y='3.75'>R1</text><text x='0' y='8.75'>220&#x3a9;</text><text x='0' y='13.75'>&#xb1;5%</text></g></g></g></svg>